<svg xmlns="http://www.w3.org/2000/svg" viewBox="0 0 512 512" role="img" aria-labelledby="title desc">
    <title id="title">Course Banner Builder</title>
    <desc id="desc">A plugin logo made of stacked banner layers and editing controls.</desc>
    <defs>
        <filter id="soft-shadow" x="-20%" y="-20%" width="140%" height="140%">
            <feDropShadow dx="0" dy="14" stdDeviation="18" flood-color="#1e293b" flood-opacity=".16"/>
        </filter>
    </defs>

    <rect x="56" y="56" width="400" height="400" rx="78" fill="#ffffff"/>
    <rect x="56" y="56" width="400" height="400" rx="78" fill="none" stroke="#d7dee9" stroke-width="12"/>

    <g filter="url(#soft-shadow)">
        <rect x="126" y="134" width="260" height="92" rx="22" fill="#dbeafe"/>
        <rect x="106" y="190" width="300" height="108" rx="24" fill="#bfdbfe"/>
        <rect x="86" y="252" width="340" height="126" rx="28" fill="#0f6cbf"/>
    </g>

    <path d="M116 340l82-58 56 40 38-30 104 48v12H116z" fill="#e0f2fe"/>
    <circle cx="346" cy="294" r="20" fill="#f59e0b"/>

    <rect x="132" y="284" width="112" height="16" rx="8" fill="#ffffff"/>
    <rect x="132" y="314" width="76" height="12" rx="6" fill="#cfe8ff"/>

    <g fill="none" stroke="#0f172a" stroke-linecap="round" stroke-linejoin="round" stroke-width="14">
        <path d="M86 226v-36c0-18 14-32 32-32h40"/>
        <path d="M426 252v94c0 18-14 32-32 32h-42"/>
        <path d="M158 158h-32"/>
        <path d="M352 378h34"/>
    </g>

    <g fill="#ffffff" stroke="#0f172a" stroke-width="10">
        <circle cx="100" cy="226" r="15"/>
        <circle cx="412" cy="252" r="15"/>
        <circle cx="352" cy="378" r="15"/>
        <circle cx="158" cy="158" r="15"/>
    </g>

    <g fill="none" stroke="#f59e0b" stroke-linecap="round" stroke-width="18">
        <path d="M334 142h62"/>
        <path d="M365 111v62"/>
    </g>
</svg>
